<?xml version="1.0" encoding="UTF-8" standalone="no"?>
<!-- Created with Inkscape (http://www.inkscape.org/) -->

<svg
   width="50.299999mm"
   height="65.300003mm"
   viewBox="0 0 50.299999 65.300003"
   version="1.1"
   id="svg5"
   xml:space="preserve"
   sodipodi:docname="thumbnail.svg"
   inkscape:version="1.2.2 (b0a8486541, 2022-12-01)"
   xmlns:inkscape="http://www.inkscape.org/namespaces/inkscape"
   xmlns:sodipodi="http://sodipodi.sourceforge.net/DTD/sodipodi-0.dtd"
   xmlns="http://www.w3.org/2000/svg"
   xmlns:svg="http://www.w3.org/2000/svg"><sodipodi:namedview
     id="namedview27292"
     pagecolor="#505050"
     bordercolor="#eeeeee"
     borderopacity="1"
     inkscape:showpageshadow="0"
     inkscape:pageopacity="0"
     inkscape:pagecheckerboard="0"
     inkscape:deskcolor="#505050"
     inkscape:document-units="mm"
     showgrid="false"
     inkscape:zoom="2.3346279"
     inkscape:cx="103.44261"
     inkscape:cy="142.84932"
     inkscape:window-width="1854"
     inkscape:window-height="1003"
     inkscape:window-x="0"
     inkscape:window-y="0"
     inkscape:window-maximized="1"
     inkscape:current-layer="layer1" /><defs
     id="defs2"><rect
   x="307.1842"
   y="349.40363"
   width="249.52148"
   height="338.9057"
   id="rect248" />
       
        <style
   id="style27284">
          @media (prefers-color-scheme: dark){
            path {
              fill: #ffffff !important
            }
            circle {
              fill: #ffffff !important
            }
          }
    </style>
       
       </defs><g
     id="layer1"
     transform="translate(-84.661021,-101.1568)"><rect
       style="fill:#000000;fill-opacity:1;stroke:#000000;stroke-width:0.3"
       id="rect27826"
       width="55"
       height="65"
       x="0.078207947"
       y="0.10542431"
       ry="0.10178675"
       transform="translate(84.732813,101.20138)" /><g
       id="g27884"
       transform="translate(3.2750225,2.5335277)"><path
         id="text246"
         style="font-style:normal;font-variant:normal;font-weight:bold;font-stretch:normal;font-size:266.667px;font-family:Cormorant;-inkscape-font-specification:'Cormorant Bold';white-space:pre;shape-inside:url(#rect248);display:inline;fill:#ffffff;fill-opacity:1;stroke-width:0.377953;stroke-opacity:0.6"
         d="m 421.58425,416.6055 c -57.86668,0 -101.33423,35.73435 -101.33423,88.00103 0,16.43668 4.27413,31.70592 12.3947,44.63184 4.64474,-8.89866 11.39185,-16.72748 19.49757,-23.66997 -2.52178,-9.45112 -3.8916,-19.77822 -3.8916,-30.82939 0,-43.46667 20.7994,-71.46597 60.79941,-71.46597 21.15807,0 38.71123,8.49961 50.76982,23.57951 2.69869,-8.47369 4.98154,-16.49831 5.85154,-22.00968 l 0.0301,-0.16961 0.0452,-0.17526 c 0.0342,-0.11993 0.076,-0.23995 0.11307,-0.35995 -10.7935,-4.77483 -28.52371,-7.53255 -44.27566,-7.53255 z m 51.37477,39.1346 c -1.19559,2.70699 -2.23059,5.03641 -3.32247,7.50994 0.34868,0.79735 0.68666,1.60546 1.01389,2.42353 0.8,1.33333 3.19997,0.79906 3.19997,-0.26761 z m -47.90908,64.06534 c -1.86666,0 -1.86572,4.26662 0.26761,4.26662 2.09925,0 3.98638,0.0326 5.7818,0.0829 0.63904,-1.28687 1.26449,-2.57806 1.88456,-3.87087 -2.57884,-0.14134 -5.20492,-0.29674 -7.93397,-0.47867 z m 63.20033,0.53332 c -15.2342,0.75231 -28.51289,0.95771 -43.4163,0.46172 -0.68568,1.5429 -1.388,3.08824 -2.1107,4.63977 9.28105,2.50541 10.32734,9.33325 10.32734,27.16581 0,27.46667 -8.53397,32.2673 -30.66731,32.2673 -6.61563,0 -12.96081,-0.88604 -18.96236,-2.57996 -0.90595,0.97705 -1.81037,1.95295 -2.7571,2.95121 l -0.0377,0.0434 -0.0471,0.0396 c -1.01138,0.98495 -2.02169,1.92372 -3.03036,2.83248 5.85182,0.81656 11.99816,1.24569 18.43468,1.24569 19.20001,0 40.80036,-3.19992 60.00036,-7.46659 2.4,-0.8 3.19997,-1.06664 3.19997,-3.19997 0,-4.26667 -1.8657,-5.59977 -1.8657,-23.46644 0,-28.26667 0.79895,-31.46731 10.93228,-31.20064 1.86667,0 1.6,-3.7333 0,-3.7333 z m -132.9344,15.14615 c -0.0107,0.0114 -0.0214,0.0225 -0.032,0.0339 -6.39402,6.8293 -11.34031,15.73574 -14.3716,24.61601 10.85522,11.9477 25.79173,20.94012 44.32655,25.62991 2.61785,-2.06938 5.35197,-4.46256 8.19026,-7.1858 -17.0443,-7.93923 -30.46613,-23.01927 -38.11318,-43.09404 z"
         transform="matrix(0.27421073,0,0,0.27421073,-3.0831787,-4.0108334)" /><path
         d="m 79.129894,149.09687 c -1.834446,3.42195 -7.287999,10.01296 -9.651612,13.04685 -11.183063,0 -27.883969,-0.52323 -36.244808,7.41427 -2.681113,2.54001 -3.915836,5.50334 -3.915836,8.18445 0,4.40973 3.280836,8.04334 9.031117,8.04334 2.398891,0 5.221115,-0.635 8.396117,-2.11666 14.495436,-7.47947 16.862855,-13.08445 24.540272,-20.57244 1.164712,-0.0819 4.210073,-0.42104 4.558802,-1.87254 0.348729,-1.4515 -1.1466,0.56252 -3.827713,0.80946 1.44639,-1.44639 11.346997,-12.30169 11.981997,-12.30169 0.176389,0 0.282223,-0.17639 0.282223,-0.38806 0,-0.56444 -0.458612,-1.48166 -1.375834,-1.83444 -0.246945,-0.10583 -0.529167,-0.14111 -0.776112,-0.14111 -1.12889,0 -2.328335,0.77611 -2.998613,1.72861 z m -10.136953,14.04594 c -5.573892,7.05556 -13.710841,15.05825 -21.542513,18.97408 -3.951114,1.97556 -7.126116,2.82223 -9.560284,2.82223 -4.445003,0 -7.80172,-2.03663 -7.80172,-5.49386 0,-4.16278 4.27394,-10.06365 9.389221,-12.74477 9.242784,-4.86833 19.1789,-3.41657 29.515296,-3.55768 z"
         id="path658"
         style="font-weight:bold;font-size:35.2778px;font-family:Signatrue;-inkscape-font-specification:'Signatrue Bold';opacity:1;fill:#ffffff;fill-opacity:1;stroke-width:0.1;stroke-opacity:0.6"
         transform="rotate(-19.224551,-5.4553493,-5.7451595)" /><circle
         style="fill:#ffffff;fill-opacity:1;stroke-width:0.147819;stroke-opacity:0.6"
         id="path503"
         cx="130.43773"
         cy="104.10284"
         r="2.9014549" /></g></g></svg>
