<?xml version="1.0" encoding="UTF-8" standalone="no"?>
<!-- Uploaded to: SVG Repo, www.svgrepo.com, Generator: SVG Repo Mixer Tools -->

<svg
   width="800px"
   height="800px"
   viewBox="0 0 24 24"
   fill="none"
   version="1.1"
   id="svg16458"
   sodipodi:docname="edit.svg"
   inkscape:version="1.2.2 (b0a8486541, 2022-12-01)"
   inkscape:export-filename="edit.svg"
   inkscape:export-xdpi="96"
   inkscape:export-ydpi="96"
   xmlns:inkscape="http://www.inkscape.org/namespaces/inkscape"
   xmlns:sodipodi="http://sodipodi.sourceforge.net/DTD/sodipodi-0.dtd"
   xmlns="http://www.w3.org/2000/svg"
   xmlns:svg="http://www.w3.org/2000/svg">
  <defs
     id="defs16462" />
  <sodipodi:namedview
     id="namedview16460"
     pagecolor="#505050"
     bordercolor="#eeeeee"
     borderopacity="1"
     inkscape:showpageshadow="0"
     inkscape:pageopacity="0"
     inkscape:pagecheckerboard="0"
     inkscape:deskcolor="#505050"
     showgrid="false"
     inkscape:zoom="0.56532542"
     inkscape:cx="310.44067"
     inkscape:cy="545.7034"
     inkscape:window-width="1854"
     inkscape:window-height="1003"
     inkscape:window-x="0"
     inkscape:window-y="0"
     inkscape:window-maximized="1"
     inkscape:current-layer="svg16458" />
  <path
     d="M20 11.5H3V20.5C3 21.0523 3.44772 21.5 4 21.5H20C20.5523 21.5 21 21.0523 21 20.5V12.5C21 11.9477 20.5523 11.5 20 11.5Z"
     stroke="#000000"
     stroke-linejoin="round"
     id="path16446" />
  <path
     d="M1.59998 7.40002L17.5747 1.58568C18.0937 1.39679 18.6676 1.66438 18.8565 2.18335L19.5405 4.06274C19.7294 4.58172 19.4618 5.15556 18.9428 5.34445L2.96806 11.1588L1.59998 7.40002Z"
     stroke="#000000"
     stroke-linejoin="round"
     id="path16448" />
  <path
     d="M15.6954 2.26973L15.1841 6.71254"
     stroke="#000000"
     id="path16450" />
  <path
     d="M11.9366 3.6378L11.4253 8.08061"
     stroke="#000000"
     id="path16452" />
  <path
     d="M8.17785 5.00589L7.66654 9.4487"
     stroke="#000000"
     id="path16454" />
  <path
     d="M4.41906 6.37397L3.90775 10.8168"
     stroke="#000000"
     id="path16456" />
</svg>
