<?xml version="1.0" encoding="UTF-8" standalone="no"?>
<!-- Created with Inkscape (http://www.inkscape.org/) -->

<svg
   width="101.09937mm"
   height="54.974895mm"
   viewBox="0 0 101.09937 54.974895"
   version="1.1"
   id="svg17844"
   xml:space="preserve"
   inkscape:version="1.2.2 (b0a8486541, 2022-12-01)"
   sodipodi:docname="escena.svg"
   xmlns:inkscape="http://www.inkscape.org/namespaces/inkscape"
   xmlns:sodipodi="http://sodipodi.sourceforge.net/DTD/sodipodi-0.dtd"
   xmlns="http://www.w3.org/2000/svg"
   xmlns:svg="http://www.w3.org/2000/svg"><sodipodi:namedview
     id="namedview17846"
     pagecolor="#505050"
     bordercolor="#eeeeee"
     borderopacity="1"
     inkscape:showpageshadow="0"
     inkscape:pageopacity="0"
     inkscape:pagecheckerboard="0"
     inkscape:deskcolor="#505050"
     inkscape:document-units="mm"
     showgrid="false"
     inkscape:zoom="1.8247122"
     inkscape:cx="204.14178"
     inkscape:cy="66.03781"
     inkscape:window-width="1854"
     inkscape:window-height="1003"
     inkscape:window-x="0"
     inkscape:window-y="0"
     inkscape:window-maximized="1"
     inkscape:current-layer="layer1" /><defs
     id="defs17841" /><g
     inkscape:label="Layer 1"
     inkscape:groupmode="layer"
     id="layer1"
     style="display:inline"
     transform="translate(-40.47206,-91.589118)"><g
       id="g25692"
       transform="translate(13.387206,-54.621602)"
       inkscape:label="circulitos"><ellipse
         style="fill:none;stroke:#000000;stroke-width:0.3;stroke-dasharray:none;stroke-opacity:1"
         id="path25576"
         cx="81.200119"
         cy="193.8967"
         rx="41.299091"
         ry="7.1389194" /><ellipse
         style="fill:none;stroke:#000000;stroke-width:0.3;stroke-dasharray:none;stroke-opacity:1"
         id="ellipse25682"
         cx="81.200119"
         cy="186.48846"
         rx="41.299091"
         ry="7.1389194" /><ellipse
         style="fill:none;stroke:#000000;stroke-width:0.3;stroke-dasharray:none;stroke-opacity:1"
         id="ellipse25684"
         cx="81.200119"
         cy="182.78435"
         rx="41.299091"
         ry="7.1389194" /><ellipse
         style="fill:none;stroke:#000000;stroke-width:0.3;stroke-dasharray:none;stroke-opacity:1"
         id="ellipse25686"
         cx="81.200119"
         cy="190.19258"
         rx="41.299091"
         ry="7.1389194" /><g
         id="g25938"
         transform="matrix(0.27653686,0,0,0.27653686,23.022251,146.21072)"
         inkscape:label="cosa">
	<path
   style="fill:#010002"
   d="m 102.123,90.756 c 0,6.313 -5.136,11.449 -11.442,11.449 -6.313,0 -11.445,-5.136 -11.445,-11.449 0,-6.306 5.132,-11.438 11.445,-11.438 6.306,0 11.442,5.132 11.442,11.438 z m 6.019,-1.811 v 3.615 h 72.812 v -3.615 z m -8.736,16.935 48.4,48.393 2.552,-2.548 -48.4,-48.397 z M 88.87,195.645 h 3.622 V 108.207 H 88.87 Z M 74.182,88.945 H 14.691 V 92.56 H 74.182 Z M 92.492,0 H 88.87 v 74.905 h 3.622 z M 79.683,84.364 81.837,81.458 36.204,47.559 35.528,47.054 33.37,49.96 79,83.867 Z m 70.786,-53.242 -2.62,-2.502 -48.561,50.834 2.62,2.502 z m -113.381,120.775 2.731,2.373 42.141,-48.536 -2.734,-2.369 z m 73.176,-49.037 55.569,15.557 0.973,-3.482 -55.572,-15.557 z m -67.243,4.795 1.249,3.396 L 74.744,99.86 73.495,96.464 Z M 108.779,84.4 158.547,67.143 157.359,63.725 107.599,80.982 Z M 83.931,75.585 87.216,74.064 59.248,13.571 58.894,12.802 55.609,14.323 83.58,74.819 Z"
   id="path25936" />
</g><path
         d="m 128.18423,155.82223 c -0.45245,6.16144 -2.05811,10.6216 -4.81698,13.38047 -0.48927,0.48928 -1.025,0.93656 -1.60718,1.34185 l -2e-5,2.39975 -3.21132,3.21131 -1.95962,-3.42928 -5.30485,-5.30539 -3.43836,-1.96477 3.21131,-3.21132 2.41249,3e-5 c 0.40162,-0.58271 0.84631,-1.11794 1.33405,-1.60569 2.75887,-2.75886 7.21903,-4.36452 13.38048,-4.81696 z m -2.40849,2.40741 -0.4581,0.0695 c -4.10819,0.6465 -7.09699,1.95084 -9.00006,3.85392 -1.14565,1.14564 -2.01708,2.63742 -2.60721,4.50143 l -0.0391,0.12584 3.58704,3.58704 0.17745,-0.0558 c 1.67644,-0.56281 3.05348,-1.35266 4.14953,-2.36496 l 0.26817,-0.25771 c 1.90308,-1.90308 3.20742,-4.89188 3.85392,-9.00006 z m -14.1169,11.10861 -2.27074,2.27074 -1.51383,-1.51383 2.27074,-2.27074 z m 2.27074,2.27074 -3.78457,3.78457 -1.51383,-1.51383 3.78458,-3.78457 z m 0.75692,0.75691 1.51382,1.51383 -2.27074,2.27074 -1.51382,-1.51382 z m 5.46944,-10.12105 c 0.88678,0 1.60566,0.71888 1.60566,1.60566 0,0.88678 -0.71888,1.60566 -1.60566,1.60566 -0.88678,0 -1.60566,-0.71888 -1.60566,-1.60566 0,-0.88678 0.71888,-1.60566 1.60566,-1.60566 z"
         id="Combined-Shape"
         style="fill:#000000;fill-rule:evenodd;stroke:none;stroke-width:0.0501768" /></g><g
       id="g20749"
       inkscape:label="camara"
       transform="matrix(0.15383852,0.06596836,-0.06596836,0.15383852,56.461471,74.554105)"><path
         d="m 187.41555,140.88174 -10.12858,-2.68718 10.12858,-2.68717 2.68718,-9.92188 2.68717,9.92188 9.92188,2.68717 -9.92188,2.68718 -2.68717,10.12858 z m 9.71517,10.9554 -3.7207,-0.82682 3.7207,-1.03353 1.03353,-3.92741 0.82682,3.92741 3.92741,1.03353 -3.92741,0.82682 -0.82682,3.92741 z"
         fill="#FDCD60"
         id="path16295"
         style="fill:#93c5fd;fill-opacity:1;stroke-width:0.206706" /><path
         d="m 29.078964,253.53636 -4.13411,-1.03353 4.13411,-1.03353 1.03353,-4.13411 1.03353,4.13411 4.34082,1.03353 -4.34082,1.03353 -1.03353,4.34082 z m 14.2627,31.21257 -6.82129,-1.65365 6.82129,-1.44694 1.44694,-6.82129 1.65364,6.82129 6.82129,1.44694 -6.82129,1.65365 -1.65364,6.82129 z"
         fill="#FDCD60"
         id="path16297"
         style="fill:#93c5fd;fill-opacity:1;stroke-width:0.206706" /><path
         d="m 42.308134,141.50186 m -1.86035,0 a 1.8603516,1.8603516 0 1 0 3.7207,0 1.8603516,1.8603516 0 1 0 -3.7207,0 z"
         fill="#5546cb"
         id="path16299"
         style="stroke-width:0.206706" /><path
         d="m 196.5106,283.09528 a 5.1676432,5.1676432 0 1 1 5.16765,-5.16764 5.1676432,5.1676432 0 0 1 -5.16765,5.16764 z m 0,-7.4414 a 2.0670573,2.0670573 0 1 0 2.06706,2.06705 2.0670573,2.0670573 0 0 0 -2.06706,-2.06705 z"
         fill="#5546cb"
         id="path16301"
         style="stroke-width:0.206706" /><path
         d="m 47.062364,189.25088 v 71.72689 a 6.4078776,6.4078776 0 0 0 6.40788,6.40788 H 183.48814 a 6.4078776,6.4078776 0 0 0 6.40788,-6.40788 v -71.72689 z m 74.827476,74.00065 c -19.01693,0 -34.726566,-15.50293 -34.726566,-34.72656 0,-19.22363 15.502926,-34.72656 34.726566,-34.72656 19.22363,0 34.72656,15.50293 34.72656,34.72656 0,19.22363 -15.70964,34.72656 -34.72656,34.72656 z m 68.21289,-78.13476 V 172.0943 a 6.4078776,6.4078776 0 0 0 -6.40788,-6.40787 H 53.676944 a 6.4078776,6.4078776 0 0 0 -6.40787,6.40787 v 13.02247 z m -28.93881,-11.98894 h 14.67611 v 4.13412 h -14.67611 z"
         fill="#FDCD60"
         id="path16303"
         style="fill:#93c5fd;fill-opacity:1;stroke-width:0.206706" /><path
         d="m 183.48814,161.55231 h -8.26823 l -3.10058,-12.19564 h -24.39128 l -3.10058,12.19564 H 53.676944 a 10.541992,10.541992 0 0 0 -10.54199,10.54199 v 88.88347 a 10.541992,10.541992 0 0 0 10.54199,10.54199 H 183.48814 a 10.541992,10.541992 0 0 0 10.542,-10.54199 V 172.0943 a 10.541992,10.541992 0 0 0 -10.542,-10.54199 z m -32.4528,-8.06152 h 17.7767 l 2.06705,7.64811 h -21.7041 z M 53.676944,165.68643 H 183.48814 a 6.4078776,6.4078776 0 0 1 6.40788,6.40787 v 13.02247 H 47.062364 V 172.0943 a 6.4078776,6.4078776 0 0 1 6.61458,-6.40787 z M 183.48814,267.38565 H 53.676944 a 6.4078776,6.4078776 0 0 1 -6.40787,-6.40788 V 189.25088 H 190.10273 v 71.72689 a 6.4078776,6.4078776 0 0 1 -6.61459,6.40788 z"
         fill="#5546cb"
         id="path16305"
         style="stroke-width:0.206706" /><path
         d="m 121.88984,198.13923 c -16.74317,0 -30.592446,13.64257 -30.592446,30.59244 0,16.94987 13.642576,30.59245 30.592446,30.59245 16.94987,0 30.59244,-13.64258 30.59244,-30.59245 0,-16.94987 -13.84928,-30.59244 -30.59244,-30.59244 z m 0,54.57031 a 23.977865,23.977865 0 1 1 23.97786,-24.18457 23.977865,23.977865 0 0 1 -23.97786,23.97786 z"
         fill="#ffffff"
         id="path16307"
         style="stroke-width:0.206706" /><path
         d="m 121.88984,194.00511 c -19.01693,0 -34.726566,15.50293 -34.726566,34.72656 0,19.22364 15.502926,34.72657 34.726566,34.72657 19.22363,0 34.72656,-15.50293 34.72656,-34.72657 0,-19.22363 -15.70964,-34.72656 -34.72656,-34.72656 z m 0,65.11231 c -16.74317,0 -30.592446,-13.64258 -30.592446,-30.59245 0,-16.94987 13.642576,-30.59245 30.592446,-30.59245 16.94987,0 30.59244,13.64258 30.59244,30.59245 0,16.94987 -13.84928,30.59245 -30.59244,30.59245 z"
         fill="#5546cb"
         id="path16309"
         style="stroke-width:0.206706" /><path
         d="m 121.88984,208.68122 a 19.84375,19.84375 0 1 0 19.84375,19.84375 19.84375,19.84375 0 0 0 -19.84375,-19.84375 z m 8.88834,16.74316 a 3.7207031,3.7207031 0 1 1 3.7207,-3.7207 3.7207031,3.7207031 0 0 1 -3.7207,3.7207 z"
         fill="#FF8859"
         id="path16311"
         style="fill:#5972ff;fill-opacity:1;stroke-width:0.206706" /><path
         d="m 121.88984,204.5471 a 23.977865,23.977865 0 1 0 23.97786,23.97787 23.977865,23.977865 0 0 0 -23.97786,-23.97787 z m 0,43.82162 a 19.84375,19.84375 0 1 1 19.84375,-19.84375 19.84375,19.84375 0 0 1 -19.84375,19.84375 z"
         fill="#5546cb"
         id="path16313"
         style="stroke-width:0.206706" /><path
         d="m 130.77818,221.91039 m -3.7207,0 a 3.7207031,3.7207031 0 1 0 7.4414,0 3.7207031,3.7207031 0 1 0 -7.4414,0 z"
         fill="#ffffff"
         id="path16315"
         style="stroke-width:0.206706" /><path
         d="m 168.81204,153.49079 h -17.7767 l -1.86035,7.64811 h 21.7041 z"
         fill="#afbcf3"
         id="path16317"
         style="stroke-width:0.206706" /><path
         d="m 161.16392,173.12783 h 14.67611 v 4.13412 h -14.67611 z"
         fill="#5546cb"
         id="path16319"
         style="stroke-width:0.206706" /></g><g
       id="g25560"
       inkscape:label="edit"
       style="display:none;fill:none"
       transform="matrix(1.0684835,-0.34754275,0.34754275,1.0684835,111.27582,102.95871)"><path
         d="M 18.900006,10.473617 H 1.9000059 v 9 c 0,0.5523 0.44772,1 1,1 H 18.900006 c 0.5523,0 1,-0.4477 1,-1 v -8 c 0,-0.5523 -0.4477,-1 -1,-1 z"
         stroke="#000000"
         stroke-linejoin="round"
         id="path16446" /><path
         d="M 0.49998594,6.3736367 16.474706,0.55929672 c 0.519,-0.18889 1.0929,0.0787 1.2818,0.59766998 l 0.684,1.87939 c 0.1889,0.51898 -0.0787,1.09282 -0.5977,1.28171 L 1.8680659,10.132417 Z"
         stroke="#000000"
         stroke-linejoin="round"
         id="path16448" /><path
         d="m 14.595406,1.2433467 -0.5113,4.44281"
         stroke="#000000"
         id="path16450" /><path
         d="m 10.836606,2.6114167 -0.5113,4.44281"
         stroke="#000000"
         id="path16452" /><path
         d="m 7.0778559,3.9795067 -0.51131,4.44281"
         stroke="#000000"
         id="path16454" /><path
         d="m 3.3190659,5.3475867 -0.51131,4.44283"
         stroke="#000000"
         id="path16456" /></g><g
       id="g20734"
       inkscape:label="carita"
       transform="translate(0.02492629,69.450889)"><circle
         style="fill:#000000;stroke-width:0.1;stroke-opacity:0.6"
         id="path240"
         cx="95.006134"
         cy="54.678722"
         r="17.132" /><ellipse
         style="fill:#ffffff;stroke-width:0.1;stroke-opacity:0.6"
         id="path296"
         cx="90.763016"
         cy="50.4454"
         rx="2.2761991"
         ry="7.1381164" /><ellipse
         style="fill:#ffffff;stroke-width:0.1;stroke-opacity:0.6"
         id="path296-3"
         cx="99.249245"
         cy="50.4454"
         rx="2.2761991"
         ry="7.1381164" /></g><g
       id="g26083"
       style="display:none"><ellipse
         style="fill:#000000;fill-opacity:1;stroke:#000000;stroke-width:0.3;stroke-dasharray:none;stroke-opacity:1"
         id="path26060"
         cx="90.370125"
         cy="121.98106"
         rx="1.0490298"
         ry="1.2769101" /><ellipse
         style="fill:#000000;fill-opacity:1;stroke:#000000;stroke-width:0.3;stroke-dasharray:none;stroke-opacity:1"
         id="ellipse26063"
         cx="98.836792"
         cy="121.98106"
         rx="1.0490298"
         ry="1.2769101" /></g></g></svg>
