<?xml version="1.0" encoding="UTF-8" standalone="no"?>
<!-- Uploaded to: SVG Repo, www.svgrepo.com, Generator: SVG Repo Mixer Tools -->

<svg
   height="800px"
   width="800px"
   version="1.1"
   id="Layer_1"
   viewBox="0 0 512 512"
   xml:space="preserve"
   sodipodi:docname="videophone.svg"
   inkscape:version="1.2.2 (b0a8486541, 2022-12-01)"
   xmlns:inkscape="http://www.inkscape.org/namespaces/inkscape"
   xmlns:sodipodi="http://sodipodi.sourceforge.net/DTD/sodipodi-0.dtd"
   xmlns="http://www.w3.org/2000/svg"
   xmlns:svg="http://www.w3.org/2000/svg"><defs
   id="defs625" /><sodipodi:namedview
   id="namedview623"
   pagecolor="#505050"
   bordercolor="#eeeeee"
   borderopacity="1"
   inkscape:showpageshadow="0"
   inkscape:pageopacity="0"
   inkscape:pagecheckerboard="0"
   inkscape:deskcolor="#505050"
   showgrid="false"
   inkscape:zoom="0.93875"
   inkscape:cx="359.52064"
   inkscape:cy="401.06525"
   inkscape:window-width="1854"
   inkscape:window-height="1003"
   inkscape:window-x="0"
   inkscape:window-y="0"
   inkscape:window-maximized="1"
   inkscape:current-layer="g620" />
<g
   transform="translate(0 1)"
   id="g620">
	<path
   style="fill:#f3f3f3;fill-opacity:1"
   d="M359.245,502.467H144.299c-16.051,0-29.065-13.013-29.065-29.056V36.589   c0-16.043,13.013-29.056,29.065-29.056h214.946c16.051,0,29.056,13.013,29.056,29.056v436.821   C388.301,489.453,375.296,502.467,359.245,502.467"
   id="path570" />
	<polygon
   style="fill:#93c5fd;fill-opacity:1"
   points="149.367,306.2 354.167,306.2 354.167,169.667 149.367,169.667  "
   id="polygon572" />
	<polygon
   style="fill:#6ada00;fill-opacity:1"
   points="234.701,263.533 234.701,212.333 277.367,237.933  "
   id="polygon574"
   inkscape:label="polygon574" />
	<path
   style="fill:#93c5fd;fill-opacity:1"
   d="M268.834,451.267c0,14.14-11.46,25.6-25.6,25.6c-14.14,0-25.6-11.46-25.6-25.6   c0-14.14,11.46-25.6,25.6-25.6C257.374,425.667,268.834,437.127,268.834,451.267"
   id="path576" />
	<g
   id="g590">
		<path
   style="fill:#f3f3f3;fill-opacity:1"
   d="M396.288,34.234c-0.734,0-1.468-0.094-2.21-0.29l-4.122-1.101    c-4.548-1.22-7.262-5.888-6.042-10.445s5.905-7.228,10.445-6.042l4.122,1.101c4.548,1.22,7.262,5.888,6.042,10.445    C403.499,31.717,400.051,34.234,396.288,34.234z"
   id="path578" />
		<path
   style="fill:#f3f3f3;fill-opacity:1"
   d="M407.39,430.701c-0.734,0-1.476-0.094-2.21-0.29c-4.557-1.22-7.262-5.888-6.042-10.445l2.261-8.448    c1.22-4.557,5.956-7.27,10.445-6.042c4.557,1.22,7.262,5.888,6.042,10.445l-2.261,8.448    C414.609,428.184,411.161,430.701,407.39,430.701z M418.705,388.47c-0.734,0-1.476-0.094-2.21-0.29    c-4.557-1.22-7.262-5.888-6.042-10.445l2.261-8.448c1.22-4.557,5.965-7.253,10.445-6.042c4.557,1.22,7.262,5.888,6.042,10.445    l-2.261,8.448C425.924,385.953,422.477,388.47,418.705,388.47z M430.029,346.23c-0.734,0-1.476-0.094-2.219-0.29    c-4.557-1.22-7.262-5.897-6.033-10.453l2.27-8.448c1.237-4.557,5.914-7.245,10.453-6.033c4.557,1.22,7.262,5.897,6.033,10.453    l-2.27,8.448C437.231,343.721,433.792,346.23,430.029,346.23z M441.344,303.99c-0.734,0-1.485-0.094-2.227-0.29    c-4.548-1.229-7.253-5.897-6.024-10.462l2.27-8.44c1.229-4.548,5.922-7.245,10.462-6.024c4.548,1.229,7.253,5.897,6.024,10.462    l-2.27,8.44C448.555,301.481,445.107,303.99,441.344,303.99z M452.659,261.758c-0.734,0-1.485-0.094-2.219-0.299    c-4.557-1.22-7.262-5.897-6.033-10.453l2.27-8.448c1.229-4.548,5.956-7.245,10.453-6.033c4.557,1.22,7.262,5.897,6.033,10.453    l-2.27,8.448C459.87,259.249,456.422,261.758,452.659,261.758z M463.974,219.527c-0.734,0-1.476-0.094-2.219-0.299    c-4.557-1.22-7.262-5.897-6.033-10.453l2.27-8.448c1.237-4.548,5.914-7.253,10.453-6.033c4.557,1.22,7.262,5.897,6.033,10.453    l-2.27,8.448C471.185,217.01,467.746,219.527,463.974,219.527z M475.289,177.296c-0.734,0-1.476-0.094-2.219-0.299    c-4.557-1.22-7.262-5.897-6.033-10.453l2.27-8.448c1.229-4.548,5.905-7.253,10.453-6.033c4.557,1.22,7.262,5.897,6.033,10.453    l-2.27,8.448C482.5,174.778,479.061,177.296,475.289,177.296z M486.613,135.055c-0.734,0-1.485-0.094-2.219-0.299    c-4.557-1.22-7.262-5.897-6.033-10.453l2.27-8.448c1.229-4.548,5.965-7.236,10.453-6.033c4.557,1.22,7.262,5.897,6.033,10.453    l-2.27,8.448C493.815,132.538,490.376,135.055,486.613,135.055z M497.928,92.824c-0.742,0-1.493-0.102-2.236-0.299    c-4.548-1.229-7.245-5.914-6.007-10.47l0.316-1.169c0.469-1.724,0.7-3.49,0.708-5.248c0.017-4.702,3.832-8.508,8.533-8.508    c0.009,0,0.017,0,0.026,0c4.719,0.017,8.525,3.848,8.508,8.559c-0.009,3.243-0.452,6.494-1.306,9.651l-0.316,1.169    C505.122,90.315,501.683,92.824,497.928,92.824z M480.691,57.035c-1.007,0-2.031-0.179-3.029-0.563    c-0.708-0.265-1.434-0.512-2.176-0.708l-5.402-1.442c-4.548-1.22-7.253-5.897-6.033-10.453c1.22-4.548,5.922-7.236,10.453-6.033    l5.402,1.442c1.306,0.35,2.586,0.768,3.823,1.246c4.412,1.673,6.613,6.605,4.941,11.008    C487.373,54.936,484.13,57.035,480.691,57.035z M438.519,45.558c-0.734,0-1.476-0.094-2.219-0.299l-8.448-2.261    c-4.548-1.22-7.253-5.897-6.033-10.453s5.914-7.253,10.453-6.033l8.448,2.261c4.548,1.22,7.253,5.897,6.033,10.453    C445.73,43.041,442.283,45.558,438.519,45.558z"
   id="path580" />
		<path
   style="fill:#f3f3f3;fill-opacity:1"
   d="M397.047,467.984c-0.333,0-0.666-0.026-1.007-0.068c-4.267-0.537-7.74-4.471-7.74-8.772    c0-1.937,0.64-3.721,1.724-5.154l0.068-0.239c1.229-4.548,5.939-7.245,10.462-6.024c4.548,1.229,7.253,5.905,6.024,10.462    l-0.879,3.251C404.676,465.227,400.939,467.984,397.047,467.984z"
   id="path582" />
		<path
   style="fill:#f3f3f3;fill-opacity:1"
   d="M124.322,34.234c-3.772,0-7.219-2.517-8.243-6.34c-1.212-4.557,1.493-9.233,6.042-10.445    l4.122-1.101c4.574-1.203,9.233,1.502,10.445,6.042c1.212,4.557-1.493,9.233-6.042,10.445l-4.122,1.101    C125.79,34.14,125.047,34.234,124.322,34.234z"
   id="path584" />
		<path
   style="fill:#f3f3f3;fill-opacity:1"
   d="M113.22,430.701c-3.763,0-7.211-2.509-8.235-6.315l-2.27-8.44    c-1.22-4.557,1.476-9.233,6.033-10.462c4.582-1.246,9.233,1.476,10.453,6.024l2.27,8.44c1.22,4.557-1.476,9.233-6.033,10.462    C114.696,430.608,113.945,430.701,113.22,430.701z M101.896,388.47c-3.772,0-7.219-2.517-8.235-6.323l-2.261-8.448    c-1.22-4.548,1.485-9.233,6.033-10.453c4.565-1.229,9.233,1.493,10.453,6.033l2.261,8.448c1.22,4.548-1.485,9.233-6.033,10.453    C103.364,388.376,102.622,388.47,101.896,388.47z M90.581,346.23c-3.772,0-7.219-2.517-8.235-6.323l-2.261-8.448    c-1.22-4.548,1.485-9.233,6.033-10.453c4.574-1.246,9.233,1.485,10.453,6.033l2.261,8.448c1.22,4.548-1.485,9.233-6.033,10.453    C92.049,346.145,91.307,346.23,90.581,346.23z M79.266,303.998c-3.772,0-7.219-2.517-8.235-6.323l-2.261-8.448    c-1.22-4.548,1.485-9.233,6.033-10.453c4.574-1.237,9.233,1.485,10.453,6.033l2.261,8.448c1.22,4.548-1.485,9.233-6.033,10.453    C80.734,303.904,79.991,303.998,79.266,303.998z M67.942,261.767c-3.763,0-7.219-2.509-8.235-6.323l-2.27-8.448    c-1.22-4.557,1.476-9.233,6.033-10.453c4.565-1.246,9.242,1.476,10.453,6.033l2.27,8.448c1.22,4.557-1.476,9.233-6.033,10.453    C69.419,261.673,68.676,261.767,67.942,261.767z M56.627,219.535c-3.772,0-7.219-2.517-8.235-6.332l-2.261-8.448    c-1.22-4.557,1.485-9.233,6.033-10.453c4.582-1.237,9.233,1.476,10.453,6.033l2.261,8.448c1.22,4.557-1.485,9.233-6.033,10.453    C58.095,219.442,57.352,219.535,56.627,219.535z M45.312,177.304c-3.772,0-7.219-2.517-8.235-6.332l-2.261-8.448    c-1.22-4.557,1.485-9.233,6.033-10.453c4.582-1.246,9.233,1.485,10.453,6.033l2.261,8.448c1.22,4.557-1.485,9.233-6.033,10.453    C46.78,177.202,46.037,177.304,45.312,177.304z M33.988,135.064c-3.772,0-7.219-2.517-8.235-6.332l-2.261-8.448    c-1.22-4.557,1.476-9.233,6.033-10.453c4.557-1.237,9.233,1.485,10.453,6.033l2.261,8.448c1.22,4.557-1.485,9.233-6.033,10.453    C35.464,134.97,34.722,135.064,33.988,135.064z M22.673,92.833c-3.763,0-7.211-2.509-8.235-6.315l-0.316-1.178    c-0.845-3.149-1.28-6.391-1.289-9.634c-0.017-4.71,3.789-8.542,8.508-8.559c0.009,0,0.017,0,0.026,0    c4.702,0,8.516,3.797,8.533,8.508c0,1.775,0.239,3.541,0.708,5.257l0.316,1.169c1.229,4.548-1.468,9.233-6.016,10.462    C24.158,92.73,23.407,92.833,22.673,92.833z M39.91,57.035c-3.439,0-6.682-2.099-7.979-5.504    c-1.673-4.403,0.538-9.335,4.941-11.008c1.246-0.478,2.517-0.888,3.832-1.246l5.393-1.442c4.565-1.237,9.233,1.476,10.453,6.033    c1.22,4.557-1.485,9.233-6.033,10.453l-5.402,1.442c-0.751,0.196-1.476,0.444-2.176,0.708    C41.941,56.847,40.917,57.035,39.91,57.035z M82.09,45.558c-3.772,0-7.219-2.517-8.235-6.332    c-1.22-4.557,1.485-9.233,6.033-10.453l8.448-2.261c4.582-1.237,9.233,1.485,10.453,6.033c1.22,4.557-1.485,9.233-6.033,10.453    l-8.448,2.261C83.567,45.464,82.824,45.558,82.09,45.558z"
   id="path586" />
		<path
   style="fill:#f3f3f3;fill-opacity:1"
   d="M123.545,467.984c-3.917,0-7.68-2.816-8.67-6.647l-0.845-3.157    c-1.22-4.548,1.476-9.233,6.033-10.453c4.54-1.246,9.233,1.476,10.453,6.033l0.068,0.247c1.075,1.434,1.715,3.209,1.715,5.137    c0,4.301-3.473,8.243-7.74,8.772C124.22,467.958,123.878,467.984,123.545,467.984z"
   id="path588" />
	</g>
	<path
   d="M 359.245,511 H 144.299 c -20.727,0 -37.598,-16.87 -37.598,-37.589 V 36.589 C 106.701,15.862 123.571,-1 144.299,-1 h 214.946 c 20.727,0 37.589,16.862 37.589,37.589 V 473.41 c 0,20.72 -16.87,37.59 -37.589,37.59 z M 144.299,16.067 c -11.324,0 -20.531,9.208 -20.531,20.523 v 436.821 c 0,11.315 9.208,20.523 20.531,20.523 h 214.946 c 11.315,0 20.523,-9.208 20.523,-20.523 V 36.589 c 0,-11.315 -9.207,-20.523 -20.523,-20.523 H 144.299 Z"
   id="path592"
   inkscape:highlight-color="#f3f3f3" />
	<path
   d="M243.234,485.4c-18.824,0-34.133-15.309-34.133-34.133c0-18.824,15.309-34.133,34.133-34.133s34.133,15.309,34.133,34.133   C277.367,470.091,262.058,485.4,243.234,485.4z M243.234,434.2c-9.412,0-17.067,7.654-17.067,17.067s7.654,17.067,17.067,17.067   c9.412,0,17.067-7.654,17.067-17.067S252.646,434.2,243.234,434.2z"
   id="path594" />
	<path
   d="M388.301,408.6H115.234c-4.71,0-8.533-3.814-8.533-8.533c0-4.719,3.823-8.533,8.533-8.533h273.067   c4.719,0,8.533,3.814,8.533,8.533C396.834,404.786,393.02,408.6,388.301,408.6z"
   id="path596" />
	<path
   d="M388.301,67.267H115.234c-4.71,0-8.533-3.823-8.533-8.533s3.823-8.533,8.533-8.533h273.067   c4.719,0,8.533,3.823,8.533,8.533S393.02,67.267,388.301,67.267z"
   id="path598" />
	<path
   d="M251.767,41.667h-34.133c-4.71,0-8.533-3.823-8.533-8.533s3.823-8.533,8.533-8.533h34.133c4.71,0,8.533,3.823,8.533,8.533   S256.486,41.667,251.767,41.667z"
   id="path600" />
	<path
   d="M285.901,41.667h-8.533c-4.719,0-8.533-3.823-8.533-8.533s3.814-8.533,8.533-8.533h8.533c4.719,0,8.533,3.823,8.533,8.533   S290.62,41.667,285.901,41.667z"
   id="path602" />
	<path
   d="M354.167,314.733h-204.8c-4.71,0-8.533-3.814-8.533-8.533V169.667c0-4.71,3.823-8.533,8.533-8.533h204.8   c4.719,0,8.533,3.823,8.533,8.533V306.2C362.701,310.919,358.886,314.733,354.167,314.733z M157.901,297.667h187.733V178.2H157.901   V297.667z"
   id="path604" />
	<path
   d="M234.701,272.067c-1.451,0-2.901-0.367-4.207-1.109c-2.671-1.519-4.326-4.352-4.326-7.424v-51.2   c0-3.072,1.655-5.914,4.326-7.424c2.671-1.519,5.965-1.485,8.593,0.111l42.667,25.6c2.568,1.545,4.139,4.318,4.139,7.313   c0,2.995-1.579,5.777-4.139,7.313l-42.667,25.6C237.739,271.657,236.22,272.067,234.701,272.067z M243.234,227.403v21.06   l17.553-10.53L243.234,227.403z"
   id="path606" />
	<path
   d="M387.755,30.497c-0.734,0-1.468-0.094-2.21-0.29l-4.122-1.101c-4.548-1.22-7.262-5.888-6.042-10.445   c1.22-4.557,5.896-7.245,10.445-6.042l4.122,1.101c4.548,1.22,7.262,5.888,6.042,10.445   C394.965,27.979,391.518,30.497,387.755,30.497z"
   id="path608" />
	<path
   d="M398.856,426.955c-0.734,0-1.476-0.094-2.219-0.29c-4.548-1.22-7.253-5.888-6.033-10.453l2.261-8.44   c1.22-4.548,5.922-7.262,10.453-6.033c4.548,1.22,7.253,5.888,6.033,10.453l-2.261,8.44   C406.076,424.438,402.628,426.955,398.856,426.955z M410.172,384.724c-0.734,0-1.476-0.094-2.21-0.29   c-4.557-1.22-7.262-5.888-6.042-10.445l2.261-8.448c1.22-4.557,5.956-7.27,10.445-6.042c4.557,1.22,7.262,5.888,6.042,10.445   l-2.261,8.448C417.391,382.207,413.943,384.724,410.172,384.724z M421.495,342.492c-0.734,0-1.476-0.094-2.21-0.29   c-4.557-1.22-7.262-5.888-6.042-10.445l2.261-8.448c1.22-4.557,5.939-7.245,10.445-6.042c4.557,1.22,7.262,5.888,6.042,10.445   l-2.261,8.448C428.706,339.975,425.258,342.492,421.495,342.492z M432.811,300.261c-0.734,0-1.476-0.094-2.219-0.29   c-4.557-1.22-7.262-5.897-6.033-10.453l2.27-8.448c1.229-4.557,5.914-7.245,10.453-6.033c4.557,1.22,7.262,5.897,6.033,10.453   l-2.27,8.448C440.021,297.752,436.574,300.261,432.811,300.261z M444.126,258.021c-0.734,0-1.485-0.094-2.219-0.299   c-4.557-1.22-7.262-5.897-6.033-10.453l2.27-8.448c1.229-4.548,5.956-7.245,10.453-6.033c4.557,1.22,7.262,5.897,6.033,10.453   l-2.27,8.448C451.336,255.512,447.889,258.021,444.126,258.021z M455.441,215.789c-0.734,0-1.476-0.094-2.219-0.299   c-4.557-1.22-7.262-5.897-6.033-10.453l2.27-8.448c1.229-4.548,5.914-7.245,10.453-6.033c4.557,1.22,7.262,5.897,6.033,10.453   l-2.27,8.448C462.652,213.272,459.213,215.789,455.441,215.789z M466.756,173.558c-0.734,0-1.476-0.094-2.219-0.299   c-4.557-1.22-7.262-5.897-6.033-10.453l2.27-8.448c1.229-4.548,5.922-7.253,10.453-6.033c4.557,1.22,7.262,5.897,6.033,10.453   l-2.27,8.448C473.967,171.041,470.528,173.558,466.756,173.558z M478.08,131.318c-0.734,0-1.485-0.094-2.219-0.299   c-4.557-1.22-7.262-5.897-6.033-10.453l2.27-8.448c1.229-4.548,5.956-7.253,10.453-6.033c4.557,1.22,7.262,5.897,6.033,10.453   l-2.27,8.448C485.282,128.801,481.843,131.318,478.08,131.318z M489.395,89.086c-0.742,0-1.493-0.102-2.236-0.299   c-4.548-1.229-7.245-5.914-6.007-10.47l0.316-1.169c0.469-1.724,0.7-3.49,0.708-5.248c0.017-4.702,3.832-8.508,8.533-8.508   c0.009,0,0.017,0,0.026,0c4.719,0.017,8.525,3.848,8.508,8.559c-0.009,3.243-0.452,6.494-1.306,9.651l-0.316,1.169   C496.589,86.578,493.15,89.086,489.395,89.086z M472.158,53.298c-1.007,0-2.031-0.179-3.029-0.563   c-0.708-0.265-1.434-0.512-2.176-0.708l-5.402-1.442c-4.548-1.22-7.253-5.897-6.033-10.453s5.914-7.262,10.453-6.033l5.402,1.442   c1.306,0.35,2.586,0.768,3.823,1.246c4.412,1.673,6.613,6.605,4.941,11.008C478.839,51.198,475.597,53.298,472.158,53.298z    M429.986,41.82c-0.734,0-1.476-0.094-2.219-0.299l-8.448-2.261c-4.548-1.22-7.253-5.897-6.033-10.453   c1.22-4.548,5.905-7.245,10.453-6.033l8.448,2.261c4.548,1.22,7.253,5.897,6.033,10.453   C437.197,39.303,433.749,41.82,429.986,41.82z"
   id="path610" />
	<path
   d="M395.23,464.877l-15.189-1.63l-0.273-7.834c0-1.937,0.64-3.721,1.724-5.154l0.068-0.239   c1.229-4.548,5.922-7.245,10.462-6.024c4.548,1.229,7.253,5.905,6.024,10.462L395.23,464.877z"
   id="path612" />
	<path
   d="M115.703,30.497c-3.772,0-7.219-2.517-8.243-6.34c-1.212-4.557,1.493-9.233,6.042-10.445l4.122-1.101   c4.565-1.212,9.233,1.493,10.445,6.042c1.212,4.557-1.493,9.233-6.042,10.445l-4.122,1.101   C117.171,30.403,116.429,30.497,115.703,30.497z"
   id="path614" />
	<path
   d="M104.593,426.964c-3.772,0-7.219-2.517-8.235-6.323l-2.261-8.448c-1.22-4.548,1.485-9.233,6.033-10.453   c4.565-1.237,9.233,1.485,10.453,6.033l2.261,8.448c1.22,4.548-1.485,9.233-6.033,10.453   C106.069,426.878,105.327,426.964,104.593,426.964z M93.278,384.732c-3.772,0-7.219-2.517-8.235-6.323l-2.261-8.448   c-1.22-4.548,1.485-9.233,6.033-10.453c4.574-1.246,9.233,1.493,10.453,6.033l2.261,8.448c1.22,4.548-1.485,9.233-6.033,10.453   C94.754,384.638,94.012,384.732,93.278,384.732z M81.963,342.501c-3.772,0-7.219-2.517-8.235-6.323l-2.261-8.448   c-1.22-4.548,1.485-9.233,6.033-10.453c4.574-1.246,9.233,1.485,10.453,6.033l2.261,8.448c1.22,4.548-1.485,9.233-6.033,10.453   C83.43,342.407,82.696,342.501,81.963,342.501z M70.647,300.269c-3.763,0-7.219-2.509-8.235-6.323l-2.27-8.448   c-1.22-4.548,1.476-9.233,6.033-10.453c4.582-1.237,9.233,1.476,10.453,6.033l2.27,8.448c1.22,4.548-1.476,9.233-6.033,10.453   C72.124,300.176,71.373,300.269,70.647,300.269z M59.332,258.029c-3.763,0-7.219-2.517-8.235-6.323l-2.27-8.448   c-1.22-4.557,1.476-9.233,6.033-10.453c4.574-1.229,9.242,1.485,10.453,6.033l2.27,8.448c1.22,4.557-1.476,9.233-6.033,10.453   C60.808,257.935,60.057,258.029,59.332,258.029z M48.008,215.798c-3.772,0-7.219-2.517-8.235-6.332l-2.261-8.448   c-1.22-4.557,1.485-9.233,6.033-10.453c4.582-1.229,9.233,1.476,10.453,6.033l2.261,8.448c1.22,4.557-1.485,9.233-6.033,10.453   C49.476,215.704,48.742,215.798,48.008,215.798z M36.693,173.566c-3.772,0-7.219-2.517-8.235-6.332l-2.261-8.448   c-1.22-4.557,1.476-9.233,6.033-10.453c4.557-1.246,9.233,1.485,10.453,6.033l2.261,8.448c1.22,4.557-1.485,9.233-6.033,10.453   C38.161,173.464,37.419,173.566,36.693,173.566z M25.378,131.326c-3.772,0-7.219-2.517-8.235-6.332l-2.261-8.448   c-1.22-4.557,1.485-9.233,6.033-10.453c4.565-1.229,9.233,1.476,10.453,6.033l2.261,8.448c1.22,4.557-1.485,9.233-6.033,10.453   C26.846,131.233,26.103,131.326,25.378,131.326z M14.063,89.095c-3.763,0-7.211-2.509-8.235-6.323l-0.316-1.178   c-0.845-3.14-1.271-6.383-1.289-9.617c-0.017-4.71,3.789-8.542,8.508-8.559c4.659-0.418,8.542,3.789,8.559,8.508   c0,1.766,0.239,3.541,0.708,5.257l0.316,1.178c1.22,4.548-1.476,9.233-6.033,10.453C15.531,89.001,14.788,89.095,14.063,89.095z    M31.292,53.298c-3.439,0-6.69-2.108-7.979-5.513c-1.673-4.403,0.546-9.335,4.958-10.999c1.246-0.469,2.517-0.888,3.823-1.246   l5.393-1.442c4.548-1.246,9.233,1.485,10.453,6.033c1.22,4.548-1.476,9.233-6.033,10.453l-5.393,1.442   c-0.751,0.205-1.485,0.444-2.193,0.708C33.314,53.118,32.29,53.298,31.292,53.298z M73.472,41.82c-3.772,0-7.219-2.517-8.235-6.332   c-1.22-4.557,1.485-9.233,6.033-10.453l8.448-2.261c4.565-1.246,9.233,1.485,10.453,6.033c1.22,4.557-1.485,9.233-6.033,10.453   l-8.448,2.261C74.94,41.726,74.197,41.82,73.472,41.82z"
   id="path616" />
	<path
   d="M114.927,464.246c-3.917,0-7.68-2.816-8.67-6.647l-0.845-3.157c-1.22-4.548,1.476-9.233,6.033-10.453   c4.54-1.237,9.233,1.476,10.453,6.033l0.068,0.247c1.075,1.434,1.715,3.209,1.715,5.137c0,4.301-3.473,8.243-7.74,8.772   C115.601,464.229,115.26,464.246,114.927,464.246z"
   id="path618" />
</g>
</svg>
